<svg width="48" height="48" fill="none" xmlns="http://www.w3.org/2000/svg"><path d="M13.71 34h27.795v-8.1l-5.28-3.189-.911-.415-21.604.157V34Z" fill="#fff"/><path d="M31.89 32.925c.26-.933.16-1.79-.27-2.425-.393-.583-1.059-.92-1.858-.96l-15.153-.206a.278.278 0 0 1-.234-.13.368.368 0 0 1-.036-.285.418.418 0 0 1 .357-.285l15.288-.207c1.81-.091 3.78-1.634 4.467-3.525l.875-2.398a.552.552 0 0 0 .026-.311C34.367 17.5 30.39 14 25.639 14c-4.383 0-8.098 2.982-9.429 7.119a4.377 4.377 0 0 0-3.14-.92c-2.104.22-3.805 1.995-4 4.212a5.204 5.204 0 0 0 .11 1.646c-1.656.048-3.229.774-4.383 2.026-1.155 1.251-1.8 2.928-1.797 4.673 0 .323.026.65.062.972.026.156.148.272.295.272h27.967a.369.369 0 0 0 .222-.081.4.4 0 0 0 .135-.204l.21-.79Z" fill="#F38020"/><path d="m36.716 22.67-.42.013c-.099 0-.184.078-.224.18l-.59 2.165c-.259.933-.16 1.788.27 2.424.394.583 1.06.92 1.859.96l3.225.207c.098 0 .183.052.233.13.05.077.062.193.037.285a.418.418 0 0 1-.357.284l-3.36.208c-1.822.09-3.78 1.633-4.468 3.524l-.247.661c-.05.13.037.26.171.26h11.546a.292.292 0 0 0 .186-.064.319.319 0 0 0 .11-.17c.204-.766.31-1.559.313-2.355-.006-2.31-.881-4.525-2.434-6.157-1.553-1.633-3.656-2.551-5.85-2.554" fill="#FAAE40"/></svg>