<svg width="48" height="48" fill="none" xmlns="http://www.w3.org/2000/svg"><path d="M35.71 22.765a.282.282 0 0 0-.138.15l-.59 2.056c-.259.886-.16 1.698.27 2.302.394.554 1.06.874 1.859.911l3.225.197c.098 0 .183.05.233.123a.34.34 0 0 1 .037.27.414.414 0 0 1-.357.271l-3.36.197c-1.822.087-3.78 1.551-4.468 3.347l-.247.627a.217.217 0 0 0 .123.275h-1.473a.38.38 0 0 0 .357-.27l.21-.752c.258-.886.16-1.698-.27-2.302-.394-.554-1.06-.874-1.859-.91l-15.153-.197a.281.281 0 0 1-.233-.124.334.334 0 0 1-.037-.27.414.414 0 0 1 .357-.27l15.288-.197c1.811-.087 3.78-1.552 4.468-3.347l.874-2.277a.498.498 0 0 0 .037-.176l.846.366Z" fill="#F38020"/><path d="M14.12 28.56h-.004m20.247-6.176C35.5 19.804 29.593 15 25.14 15a9.455 9.455 0 0 0-8.955 6.42l-.22.65-.552-.41a4.039 4.039 0 0 0-2.792-.777c-1.874.187-3.38 1.689-3.552 3.551a4.21 4.21 0 0 0 .098 1.397l.146.601-.618.017A5.853 5.853 0 0 0 3 32.309c0 .213.013.437.038.682h27.688l.185-.662c.217-.744.14-1.399-.198-1.871-.297-.418-.816-.672-1.458-.702L14.11 29.56a.782.782 0 0 1-.647-.343c-.134-.198-.166-.44-.097-.71a.923.923 0 0 1 .824-.612l15.27-.196c1.616-.077 3.41-1.418 4.026-3.027l.878-2.288Z" stroke="#000"/><path d="m36 23.24-.538 1.871c-.217.744-.14 1.4.198 1.872.297.418.816.671 1.481.702l3.194.196a.78.78 0 0 1 .648.343.848.848 0 0 1 .097.71.916.916 0 0 1-.802.61l-3.365.197c-1.622.078-3.408 1.415-4.027 3.03l-.09.228 10.944-.023c.17-.644.257-1.307.26-1.97-.012-4.292-3.493-7.767-7.77-7.773l-.23.007Z" stroke="#030303"/></svg>