<?xml version="1.0" encoding="UTF-8"?>
<svg width="48px" height="48px" viewBox="0 0 48 48" version="1.1" xmlns="http://www.w3.org/2000/svg" xmlns:xlink="http://www.w3.org/1999/xlink">
    <!-- Generator: Sketch 48.2 (47327) - http://www.bohemiancoding.com/sketch -->
    <title>cloudflare</title>
    <desc>Created with Sketch.</desc>
    <defs></defs>
    <g id="Page-1" stroke="none" stroke-width="1" fill="none" fill-rule="evenodd">
        <g id="cloudflare" fill-rule="nonzero">
            <g id="Group" transform="translate(3.000000, 14.000000)">
                <path d="M31.8631735,8.58118701 L31.8631908,8.58114189 C31.863185,8.58115594 31.8631795,8.58117008 31.8631743,8.58118475 Z M31.863042,8.58152937 C30.9149688,4.29533041 27.0937818,1.1969375 22.6393125,1.1969375 C18.554315,1.1969375 14.9736836,3.80964709 13.6838732,7.61675036 L13.4635028,8.26721244 L12.912173,7.85770114 C12.1190054,7.2685599 11.1294859,6.98470392 10.1204415,7.07971836 C8.24625974,7.26666916 6.73978582,8.76898155 6.56795607,10.6311733 C6.52237329,11.099021 6.55567572,11.5712018 6.66647423,12.02802 L6.81222764,12.6289561 L6.19409491,12.6456918 C3.02105376,12.7316011 0.494901619,15.3312472 0.5,18.50625 C0.5,18.7184772 0.513430327,18.9430792 0.537646098,19.1875006 L28.2257665,19.1875924 L28.4107739,18.5262931 C28.6279055,17.7823143 28.5503356,17.1272492 28.2132692,16.6545341 L28.2128568,16.6539549 C27.9158614,16.2361813 27.3970294,15.9831057 26.7553792,15.9533328 L11.6090625,15.7565 C11.3461817,15.7565 11.1054648,15.6257402 10.9616996,15.4138757 C10.8276284,15.2162971 10.7955678,14.973676 10.8647669,14.7033785 C10.9794644,14.3623043 11.3000393,14.1202035 11.6892492,14.0924165 L26.9598018,13.8960709 C28.5747233,13.8188355 30.3685623,12.4778457 30.9846469,10.869442 L31.863042,8.58152936 Z M11.620447,14.7566058 C11.6188169,14.7565624 11.6171872,14.7565412 11.6155583,14.7565422 L11.620447,14.7566058 Z" id="Shape" stroke="#000000"></path>
                <path d="M33.4995529,9.43652123 L32.9617261,11.3081444 C32.7445945,12.0521232 32.8221644,12.7071883 33.1596432,13.1804826 C33.4566386,13.5982562 33.9754706,13.8513318 34.6410933,13.8819917 L37.8354375,14.0779375 C38.0983183,14.0779375 38.3390352,14.2086973 38.4828004,14.4205618 C38.6180472,14.6198729 38.6516282,14.8830754 38.5797331,15.131059 C38.4650356,15.4721332 38.1444607,15.714234 37.7780592,15.7412064 L34.4125609,15.9383732 C32.7912833,16.0154656 31.0054455,17.3526555 30.3863672,18.9688194 L30.2968925,19.1962916 L41.2403454,19.1726925 C41.4095693,18.5286226 41.4968574,17.865798 41.500002,17.2030487 C41.4877798,12.9105097 38.007422,9.43566582 33.7295569,9.43005236 L33.4995529,9.43652123 Z M37.7918999,15.0762102 C37.7964676,15.0768288 37.8008406,15.0770996 37.8049692,15.0770083 L37.7918999,15.0762102 Z" id="Shape" stroke="#030303"></path>
                <path d="M33.2090838,8.96159439 C33.1487841,8.98967473 33.0995993,9.04553415 33.072375,9.1126875 L32.48175,11.1680625 C32.2231875,12.054 32.321625,12.8664375 32.752125,13.4701875 C33.145875,14.0240625 33.8113125,14.3443125 34.610625,14.3810625 L37.8354375,14.5779375 C37.933875,14.5779375 38.0191875,14.6278125 38.0690625,14.7013125 C38.1189375,14.7748125 38.13075,14.8850625 38.1058125,14.9716875 C38.0559375,15.12 37.9089375,15.23025 37.7488125,15.2420625 L34.3888125,15.4389375 C32.5670625,15.5255625 30.6088125,16.9903125 29.9210625,18.7858125 L29.6743125,19.4131875 C29.6315637,19.5189345 29.6941423,19.6517152 29.7971967,19.6875 L28.32375,19.6875 C28.4887886,19.6843214 28.6329675,19.5751271 28.68075,19.417125 L28.89075,18.666375 C29.1493125,17.7804375 29.050875,16.968 28.620375,16.36425 C28.226625,15.810375 27.5611875,15.490125 26.761875,15.453375 L11.6090625,15.2565 C11.510625,15.2565 11.4253125,15.206625 11.3754375,15.133125 C11.3255625,15.059625 11.31375,14.9625 11.3386875,14.86275 C11.3885625,14.7144375 11.5355625,14.6041875 11.6956875,14.592375 L26.9836875,14.3955 C28.7949375,14.308875 30.7636875,12.844125 31.4514375,11.048625 L32.3255625,8.7714375 C32.3486555,8.7153271 32.3611871,8.65579991 32.362895,8.59580672 L33.2090838,8.96159439 Z" id="Combined-Shape" fill="#F38020"></path>
            </g>
        </g>
    </g>
</svg>