<svg width="48" height="48" fill="none" xmlns="http://www.w3.org/2000/svg"><path d="m14 29.97 17.5.5-.5 3.5h10.5v-.5h-8l2-3 6-1v-1.5l-5.276-.651.276-3.849-.276-.789-.91-.414L34 24.97l-3 3H14v2Z" fill="#F38020"/><path fill-rule="evenodd" clip-rule="evenodd" d="M30.927 32.657c.201-.725.092-1.261-.135-1.596v-.001c-.185-.274-.528-.49-1.063-.52l-15.13-.207a1.278 1.278 0 0 1-1.064-.588 1.365 1.365 0 0 1-.17-1.057l.01-.037.011-.036c.173-.54.663-.934 1.232-.978l.032-.002 15.3-.208c.649-.037 1.393-.34 2.07-.873.679-.535 1.22-1.246 1.492-1.994l.834-2.288C33.406 18.064 29.834 15 25.639 15c-3.908 0-7.266 2.66-8.477 6.425l-.439 1.364-1.129-.883a3.378 3.378 0 0 0-2.422-.713c-1.6.17-2.95 1.539-3.106 3.305v.005c-.041.446-.011.896.09 1.33l.273 1.19-1.22.034c-1.379.04-2.7.644-3.677 1.704-.98 1.061-1.534 2.494-1.532 3.993v.002c0 .08.002.161.005.244h26.831l.091-.343ZM31.324 34H3.357c-.147 0-.269-.116-.295-.272A8.92 8.92 0 0 1 3 32.756c-.003-1.745.642-3.422 1.797-4.673A6.262 6.262 0 0 1 8.18 26.17a6.046 6.046 0 0 1 1-.113 5.196 5.196 0 0 1-.11-1.646c.194-2.217 1.895-3.992 4-4.213a4.342 4.342 0 0 1 2.264.384c.312.145.606.326.875.537.107-.332.23-.657.366-.973C18.142 16.522 21.607 14 25.639 14c4.752 0 8.728 3.5 9.713 8.193a.552.552 0 0 1-.026.31l-.875 2.399c-.687 1.89-2.656 3.433-4.467 3.525l-15.288.207a.39.39 0 0 0-.087.017.42.42 0 0 0-.27.268.368.368 0 0 0 .036.284c.05.078.136.13.234.13l15.153.208c.8.038 1.465.376 1.858.96.43.635.53 1.49.27 2.424l-.21.79a.401.401 0 0 1-.134.204.369.369 0 0 1-.222.081Zm5.564-10.313-.441 1.618-.002.004c-.2.725-.092 1.261.135 1.596l.001.002c.187.276.535.493 1.078.52h.008l3.212.206c.45.015.82.262 1.03.588.229.354.248.772.162 1.09l-.006.02-.006.02c-.173.54-.663.934-1.233.978h-.008l-3.38.21c-.657.032-1.409.337-2.089.873a4.8 4.8 0 0 0-1.305 1.573h9.795a8.31 8.31 0 0 0 .161-1.59c-.006-2.061-.788-4.026-2.159-5.467-1.328-1.397-3.103-2.192-4.953-2.24ZM45 31.396a9.301 9.301 0 0 1-.314 2.355.319.319 0 0 1-.11.17.293.293 0 0 1-.185.064H32.845c-.134 0-.22-.13-.17-.26l.246-.66.028-.074.002-.006c.713-1.855 2.642-3.356 4.438-3.446l3.36-.207a.392.392 0 0 0 .087-.017.42.42 0 0 0 .27-.268.376.376 0 0 0-.037-.284.278.278 0 0 0-.233-.13l-3.225-.208c-.8-.038-1.465-.376-1.859-.959-.43-.636-.529-1.492-.27-2.425l.59-2.164c.04-.102.125-.18.224-.18l.42-.014v.002c2.194.003 4.297.92 5.85 2.553s2.428 3.847 2.434 6.158Z" fill="#000"/></svg>