<svg width="48" height="48" fill="none" xmlns="http://www.w3.org/2000/svg"><g clip-path="url(#logo-cloudflare__a)"><path d="M12.24 34.5h31.765v-8.79l-6.034-3.46-1.041-.45-24.69.169V34.5Z" fill="#fff"/><path d="M33.018 33.333c.295-1.012.183-1.941-.309-2.631-.45-.633-1.21-.999-2.124-1.041l-17.318-.225a.322.322 0 0 1-.266-.141.381.381 0 0 1-.042-.309.473.473 0 0 1 .408-.309l17.471-.225c2.07-.099 4.32-1.773 5.106-3.825l1-2.602a.57.57 0 0 0 .03-.338 11.363 11.363 0 0 0-11.1-8.89c-5.01 0-9.255 3.235-10.776 7.724a5.19 5.19 0 0 0-3.589-.998c-2.405.24-4.35 2.166-4.571 4.572a5.37 5.37 0 0 0 .126 1.786A7.26 7.26 0 0 0 0 33.15c0 .351.03.705.07 1.055.03.169.17.295.338.295H32.37a.435.435 0 0 0 .408-.309l.24-.858Z" fill="#F38020"/><path d="m38.532 22.204-.48.015c-.112 0-.21.084-.255.195l-.675 2.35c-.295 1.012-.183 1.94.309 2.63.45.634 1.21 1 2.124 1.042l3.685.224c.113 0 .21.058.267.142a.39.39 0 0 1 .043.308.473.473 0 0 1-.408.31l-3.84.224c-2.083.1-4.32 1.774-5.106 3.825l-.282.718c-.058.14.041.282.194.282h13.196a.345.345 0 0 0 .337-.254A9.613 9.613 0 0 0 48 31.659a9.48 9.48 0 0 0-9.468-9.453" fill="#FAAE40"/></g><defs><clipPath id="logo-cloudflare__a"><path fill="#fff" d="M0 0h48v48H0z"/></clipPath></defs></svg>